<?xml version="1.0" standalone="no"?>
<!DOCTYPE svg PUBLIC "-//W3C//DTD SVG 20010904//EN"
 "http://www.w3.org/TR/2001/REC-SVG-20010904/DTD/svg10.dtd">
<svg version="1.0" xmlns="http://www.w3.org/2000/svg"
 width="611.000000pt" height="306.000000pt" viewBox="0 0 611.000000 306.000000"
 preserveAspectRatio="xMidYMid meet">

<g transform="translate(0.000000,306.000000) scale(0.100000,-0.100000)"
fill="#000000" stroke="none">
<path d="M2898 2861 c-21 -16 -35 -31 -32 -33 5 -6 125 0 163 8 29 6 18 19
-29 32 -19 5 -42 12 -50 15 -8 3 -32 -7 -52 -22z"/>
<path d="M3143 2860 c15 -5 39 -5 55 0 22 7 17 8 -28 8 -45 0 -50 -1 -27 -8z"/>
<path d="M2753 2847 c-51 -13 -54 -22 -12 -31 32 -6 57 3 79 28 10 14 10 16
-6 15 -11 -1 -38 -7 -61 -12z"/>
<path d="M3267 2846 l-29 -13 59 -17 c32 -10 71 -22 87 -27 38 -12 40 -12 23
5 -24 24 -89 66 -101 65 -6 0 -24 -6 -39 -13z"/>
<path d="M2983 2797 c-51 -6 -93 -13 -93 -17 0 -4 30 -20 66 -35 l66 -28 46
47 c36 35 42 46 27 44 -11 -1 -62 -6 -112 -11z"/>
<path d="M3117 2759 c-26 -23 -47 -45 -47 -49 0 -4 21 -11 48 -14 26 -4 61
-11 77 -16 65 -18 96 -20 88 -6 -12 20 -107 126 -113 126 -3 0 -27 -19 -53
-41z"/>
<path d="M2538 2740 c-16 -28 -24 -50 -19 -50 6 0 49 19 96 42 95 46 96 58 5
58 l-55 0 -27 -50z"/>
<path d="M3249 2773 c6 -10 30 -40 54 -68 l44 -49 40 18 c22 10 52 26 67 35
l27 18 -114 32 c-134 36 -131 36 -118 14z"/>
<path d="M3510 2770 c14 -11 36 -20 50 -20 l25 0 -25 13 c-14 8 -37 16 -50 20
l-25 6 25 -19z"/>
<path d="M2786 2718 c-29 -101 -30 -112 -15 -105 8 3 43 17 79 32 36 14 78 32
93 39 l28 13 -53 23 c-29 13 -67 29 -85 36 l-32 14 -15 -52z"/>
<path d="M2635 2701 l-120 -58 41 -12 c41 -11 140 -31 155 -31 4 0 12 19 18
43 5 23 14 59 19 80 6 20 9 37 8 37 0 0 -55 -26 -121 -59z"/>
<path d="M2400 2690 c-70 -47 -73 -50 -44 -50 68 0 89 10 117 56 16 27 22 44
14 44 -6 0 -46 -23 -87 -50z"/>
<path d="M3610 2713 c0 -7 84 -59 114 -72 6 -2 -5 15 -23 37 -25 32 -40 42
-62 42 -16 0 -29 -3 -29 -7z"/>
<path d="M3453 2670 c-58 -33 -64 -45 -30 -56 12 -4 60 -24 106 -46 46 -21 85
-37 87 -35 7 6 -89 167 -100 167 -6 0 -35 -14 -63 -30z"/>
<path d="M2900 2628 c-52 -23 -97 -43 -99 -45 -9 -7 9 -14 100 -41 52 -16 105
-32 118 -36 23 -8 23 -7 17 40 -9 60 -27 124 -35 123 -3 0 -49 -19 -101 -41z"/>
<path d="M3050 2659 c0 -8 8 -46 18 -86 l17 -72 103 58 c57 33 99 61 95 64 -5
3 -47 13 -93 22 -141 29 -140 28 -140 14z"/>
<path d="M3590 2667 c0 -7 71 -140 79 -149 7 -8 100 17 113 30 4 4 -33 32 -84
62 -99 59 -108 64 -108 57z"/>
<path d="M2306 2596 l-59 -11 -14 -48 c-25 -85 -15 -87 70 -12 70 62 91 87 70
84 -5 -1 -35 -6 -67 -13z"/>
<path d="M2468 2518 c-3 -51 -4 -95 -2 -97 5 -6 203 130 204 141 0 5 -167 48
-190 48 -4 0 -10 -42 -12 -92z"/>
<path d="M3310 2587 c-55 -30 -175 -99 -183 -106 -4 -4 51 -27 123 -51 71 -24
133 -41 136 -37 5 5 -44 207 -50 207 0 0 -12 -6 -26 -13z"/>
<path d="M2328 2501 c-110 -96 -110 -95 14 -104 l77 -5 6 51 c4 29 5 72 3 97
l-3 46 -97 -85z"/>
<path d="M3380 2582 c0 -5 7 -32 14 -58 8 -27 21 -69 28 -94 7 -25 17 -44 21
-44 23 4 167 89 167 98 -1 6 -44 31 -98 54 -116 52 -132 57 -132 44z"/>
<path d="M2597 2463 c-71 -51 -104 -79 -95 -84 19 -10 228 -62 232 -58 6 6
-15 203 -23 211 -3 4 -55 -28 -114 -69z"/>
<path d="M2753 2499 c4 -24 10 -72 13 -106 5 -41 11 -63 20 -63 19 0 224 124
221 134 -2 4 -21 14 -42 21 -103 33 -143 44 -179 51 l-39 7 6 -44z"/>
<path d="M3770 2501 c-30 -9 -54 -20 -53 -25 3 -11 165 -137 170 -132 5 5 -46
158 -56 167 -3 4 -31 -1 -61 -10z"/>
<path d="M2129 2458 c-24 -29 -52 -63 -62 -75 l-19 -24 44 17 c23 9 50 24 59
33 18 17 42 101 30 101 -5 0 -28 -23 -52 -52z"/>
<path d="M3945 2460 c10 -11 20 -20 22 -20 2 0 -2 9 -9 20 -7 11 -17 20 -22
20 -5 0 -1 -9 9 -20z"/>
<path d="M3553 2402 c-46 -26 -83 -49 -83 -52 0 -6 222 -140 232 -140 6 0 1
31 -27 158 -10 45 -23 82 -29 82 -6 0 -48 -21 -93 -48z"/>
<path d="M3919 2375 l25 -75 50 0 50 0 -35 38 c-20 20 -51 54 -69 75 -18 20
-36 37 -40 37 -4 0 5 -34 19 -75z"/>
<path d="M2938 2372 c-65 -37 -117 -71 -115 -75 1 -5 27 -17 57 -27 155 -51
211 -67 214 -61 4 7 -20 161 -31 203 l-8 27 -117 -67z"/>
<path d="M3104 2398 c15 -99 30 -174 37 -182 4 -4 58 22 119 59 61 37 108 71
103 75 -7 7 -247 90 -260 90 -3 0 -2 -19 1 -42z"/>
<path d="M3700 2420 c0 -5 12 -59 26 -120 25 -109 26 -111 47 -97 12 7 43 26
69 43 27 16 48 32 48 36 0 7 -176 148 -185 148 -3 0 -5 -4 -5 -10z"/>
<path d="M2202 2283 c4 -48 10 -94 13 -102 4 -10 30 12 88 74 45 48 83 91 85
95 3 8 -82 20 -148 20 l-46 0 8 -87z"/>
<path d="M2043 2319 c-37 -17 -42 -24 -48 -62 -4 -24 -5 -55 -3 -70 3 -25 8
-19 61 57 31 47 57 87 57 90 0 10 -24 5 -67 -15z"/>
<path d="M2466 2318 c1 -13 8 -69 15 -126 6 -57 15 -102 19 -100 17 6 205 172
208 182 2 7 -41 23 -105 39 -132 34 -141 34 -137 5z"/>
<path d="M2077 2218 c-37 -55 -66 -102 -64 -104 4 -4 156 22 161 27 9 11 -8
179 -18 179 -6 0 -41 -46 -79 -102z"/>
<path d="M2326 2228 c-48 -50 -83 -94 -79 -98 11 -9 166 -50 190 -50 15 0 19
6 17 23 -2 12 -8 66 -15 120 -6 53 -15 97 -19 97 -5 0 -47 -41 -94 -92z"/>
<path d="M3350 2286 c-19 -13 -62 -38 -95 -56 -94 -51 -95 -53 -28 -84 32 -15
94 -44 138 -65 54 -26 81 -34 83 -26 2 7 -4 53 -12 101 -9 49 -16 104 -16 122
0 39 -19 41 -70 8z"/>
<path d="M3454 2279 c3 -19 11 -71 16 -116 17 -135 12 -131 108 -73 46 28 87
50 91 50 5 0 13 6 19 13 8 9 -17 29 -105 82 -64 39 -120 72 -126 74 -6 2 -7
-9 -3 -30z"/>
<path d="M2784 2252 c2 -4 12 -61 21 -127 9 -66 19 -123 23 -127 4 -4 37 13
72 37 36 25 91 64 123 86 31 22 57 41 57 44 0 4 -277 95 -291 95 -6 0 -8 -3
-5 -8z"/>
<path d="M4026 2185 c31 -41 58 -75 61 -75 3 0 2 12 -1 28 -2 15 -8 48 -11 75
l-6 47 -50 0 -49 0 56 -75z"/>
<path d="M2631 2154 c-61 -54 -110 -98 -109 -99 6 -5 245 -75 257 -75 8 0 10
11 7 33 -29 177 -38 232 -40 235 -2 1 -53 -41 -115 -94z"/>
<path d="M3848 2206 c-38 -23 -68 -46 -68 -52 0 -5 39 -48 86 -95 l87 -84 -7
80 c-4 44 -13 105 -19 136 l-12 55 -67 -40z"/>
<path d="M1942 2183 c-1 -7 -14 -37 -28 -68 -15 -31 -24 -58 -21 -61 2 -3 17
5 31 18 24 20 27 29 23 73 -2 28 -4 44 -5 38z"/>
<path d="M3971 2153 c1 -59 23 -176 34 -179 6 -2 28 12 49 31 l40 34 -58 75
c-32 42 -60 76 -62 76 -2 0 -4 -17 -3 -37z"/>
<path d="M3151 2123 c1 -50 26 -243 31 -249 6 -5 109 49 223 117 l30 18 -95
44 c-52 24 -115 54 -139 66 -54 25 -51 25 -50 4z"/>
<path d="M2978 2047 c-64 -45 -117 -85 -117 -88 -1 -4 61 -27 137 -51 117 -38
138 -42 141 -29 2 9 -2 54 -8 101 -19 135 -21 150 -29 150 -4 0 -60 -37 -124
-83z"/>
<path d="M3611 2070 c-46 -27 -87 -52 -92 -57 -8 -8 209 -183 226 -183 4 0 4
24 -1 53 -4 28 -10 92 -13 142 -5 69 -9 90 -21 91 -8 1 -53 -20 -99 -46z"/>
<path d="M4130 2083 c0 -17 7 -39 16 -48 25 -25 26 -12 4 36 -20 44 -20 44
-20 12z"/>
<path d="M3764 2064 c3 -22 8 -82 12 -134 3 -52 8 -98 10 -102 5 -7 164 89
164 99 0 6 -171 167 -182 172 -6 2 -8 -12 -4 -35z"/>
<path d="M2037 2080 c-20 -4 -39 -9 -41 -11 -2 -2 6 -41 17 -87 24 -95 21 -96
96 26 l51 82 -42 -1 c-24 -1 -60 -5 -81 -9z"/>
<path d="M2223 2068 c3 -13 11 -59 17 -103 19 -135 21 -145 26 -145 9 0 174
199 174 211 0 7 -181 59 -206 59 -12 0 -15 -6 -11 -22z"/>
<path d="M2119 1955 c-41 -67 -54 -97 -45 -103 16 -13 145 -56 151 -50 3 2 -2
49 -11 104 -21 132 -23 144 -32 144 -4 -1 -32 -43 -63 -95z"/>
<path d="M1885 1989 c-35 -31 -36 -35 -30 -78 8 -58 15 -81 23 -81 7 0 53 182
48 188 -2 2 -21 -11 -41 -29z"/>
<path d="M2515 1943 c7 -38 18 -103 26 -145 7 -43 16 -78 20 -78 10 0 209 211
209 221 0 5 -8 9 -17 9 -10 0 -61 14 -113 30 -52 16 -104 30 -116 30 -20 0
-21 -2 -9 -67z"/>
<path d="M1950 1948 c-6 -24 -18 -71 -27 -106 -9 -34 -14 -64 -12 -66 2 -3 26
14 53 37 l48 42 -18 68 c-10 37 -22 67 -26 67 -4 0 -12 -19 -18 -42z"/>
<path d="M2443 1976 c-8 -13 -28 -39 -115 -145 -21 -25 -38 -49 -38 -53 0 -8
212 -77 221 -72 7 4 -9 121 -37 262 -5 25 -19 29 -31 8z"/>
<path d="M4057 1963 c-20 -14 -37 -33 -37 -42 0 -16 94 -133 113 -140 6 -2 8
6 4 20 -4 13 -12 61 -18 107 -7 45 -15 82 -18 82 -3 0 -23 -12 -44 -27z"/>
<path d="M4153 1923 c16 -105 18 -110 27 -92 5 9 12 34 16 56 5 35 2 44 -20
67 -15 14 -28 26 -30 26 -1 0 2 -26 7 -57z"/>
<path d="M3420 1959 c-8 -5 -57 -33 -107 -62 -51 -28 -94 -56 -95 -62 -2 -9
226 -153 245 -154 9 -1 9 129 0 222 -6 67 -13 76 -43 56z"/>
<path d="M3502 1826 c2 -74 7 -138 11 -142 4 -5 55 16 112 46 77 40 101 58 94
66 -14 17 -207 164 -214 164 -4 0 -5 -60 -3 -134z"/>
<path d="M2840 1903 c0 -10 9 -71 20 -136 11 -65 20 -123 20 -129 0 -5 7 -7
16 -4 26 10 223 180 220 190 -2 7 -88 38 -253 90 -18 6 -23 3 -23 -11z"/>
<path d="M2690 1798 c-52 -55 -95 -105 -95 -110 0 -10 233 -81 246 -75 3 1 -1
43 -8 92 -8 50 -17 112 -21 139 -4 27 -11 51 -17 52 -5 2 -53 -42 -105 -98z"/>
<path d="M3873 1832 c-40 -26 -72 -50 -70 -53 3 -11 155 -169 161 -169 3 0 6
61 6 135 0 102 -3 135 -12 135 -7 -1 -46 -22 -85 -48z"/>
<path d="M4000 1737 c0 -75 3 -137 6 -137 4 0 27 17 52 38 24 20 54 44 65 54
21 16 21 17 -38 85 -32 37 -65 75 -72 83 -11 12 -13 -8 -13 -123z"/>
<path d="M1832 1745 c-1 -56 1 -66 10 -48 7 15 7 37 0 70 l-10 48 0 -70z"/>
<path d="M2057 1698 c3 -62 8 -116 12 -120 6 -7 44 38 124 143 l27 37 -68 26
c-105 40 -100 44 -95 -86z"/>
<path d="M1958 1762 c-26 -20 -47 -44 -47 -52 0 -8 27 -44 60 -80 l60 -65 -6
110 c-4 61 -10 113 -14 117 -3 4 -28 -9 -53 -30z"/>
<path d="M3194 1704 c9 -122 16 -164 27 -164 11 0 211 89 221 99 4 4 -32 30
-80 59 -48 28 -107 64 -131 78 l-44 27 7 -99z"/>
<path d="M3038 1702 c-58 -50 -109 -95 -112 -101 -6 -9 53 -29 149 -50 28 -6
61 -14 74 -17 l24 -7 -7 99 c-4 54 -10 114 -14 133 l-8 35 -106 -92z"/>
<path d="M4200 1764 c-14 -37 -12 -70 5 -84 13 -11 15 -5 15 49 0 66 -5 75
-20 35z"/>
<path d="M3635 1695 c-55 -30 -100 -58 -100 -64 0 -14 166 -182 175 -176 4 2
11 46 15 97 3 51 11 113 15 138 5 25 6 48 2 52 -4 4 -52 -18 -107 -47z"/>
<path d="M2283 1698 c11 -72 38 -209 45 -229 7 -19 19 -8 96 87 l88 108 -103
33 c-131 41 -132 41 -126 1z"/>
<path d="M3777 1688 c-22 -158 -30 -239 -24 -244 3 -3 41 15 84 40 43 26 85
50 93 55 8 4 15 13 15 19 0 13 -143 172 -155 172 -4 0 -10 -19 -13 -42z"/>
<path d="M2158 1619 c-40 -50 -72 -94 -71 -97 0 -4 47 -25 103 -49 l102 -42
-7 52 c-4 28 -13 81 -21 117 -8 36 -14 75 -14 88 0 12 -4 22 -10 22 -5 0 -42
-41 -82 -91z"/>
<path d="M4072 1602 c-28 -26 -52 -51 -52 -55 0 -12 81 -127 90 -127 4 0 10
26 13 58 4 31 9 83 13 115 4 32 3 57 -2 57 -5 -1 -33 -22 -62 -48z"/>
<path d="M1836 1605 c-16 -33 -16 -36 8 -84 25 -48 57 -84 43 -47 -4 10 -10
49 -13 87 -4 38 -10 72 -14 74 -4 3 -15 -11 -24 -30z"/>
<path d="M1903 1618 c3 -13 9 -62 13 -111 4 -48 10 -90 14 -92 8 -5 90 84 90
98 0 12 -103 127 -113 127 -5 0 -7 -10 -4 -22z"/>
<path d="M2580 1626 c0 -22 70 -260 79 -269 4 -4 47 41 94 102 l85 109 -26 10
c-43 16 -208 62 -220 62 -7 0 -12 -6 -12 -14z"/>
<path d="M4177 1633 c-2 -4 -8 -46 -11 -93 l-7 -85 30 50 c17 28 31 57 31 65
0 20 -36 74 -43 63z"/>
<path d="M2440 1518 c-77 -94 -82 -102 -64 -115 10 -7 26 -13 35 -13 10 0 28
-4 41 -9 43 -18 161 -51 166 -47 8 9 -76 286 -88 286 -4 0 -45 -46 -90 -102z"/>
<path d="M3380 1569 c-36 -17 -84 -39 -107 -50 -24 -11 -43 -23 -43 -27 0 -4
19 -27 41 -51 22 -24 56 -63 76 -88 26 -31 39 -40 44 -31 7 13 69 255 69 270
0 13 -11 10 -80 -23z"/>
<path d="M3492 1565 c-33 -126 -63 -257 -59 -261 2 -3 15 0 28 5 13 6 66 28
118 49 52 21 97 44 99 50 2 7 -37 53 -86 104 l-90 92 -10 -39z"/>
<path d="M2910 1544 c0 -16 103 -264 110 -264 13 0 141 204 133 211 -5 4 -46
16 -93 27 -130 31 -150 34 -150 26z"/>
<path d="M2776 1430 c-49 -61 -87 -113 -85 -115 10 -8 289 -60 289 -53 0 10
-92 237 -106 261 -9 16 -22 4 -98 -93z"/>
<path d="M3860 1459 c-47 -28 -90 -53 -97 -57 -8 -5 9 -34 53 -91 36 -46 69
-79 74 -75 6 7 47 171 65 257 4 23 1 22 -95 -34z"/>
<path d="M3990 1476 c-5 -15 -12 -39 -16 -54 -3 -15 -12 -54 -21 -88 -26 -102
-19 -106 70 -35 50 40 75 66 70 74 -4 7 -26 38 -50 70 l-43 59 -10 -26z"/>
<path d="M2082 1464 c3 -10 16 -55 28 -99 12 -44 25 -91 29 -104 4 -14 11 -26
17 -27 10 -3 124 138 124 153 0 8 -76 44 -189 91 -10 4 -13 0 -9 -14z"/>
<path d="M1988 1415 l-48 -53 71 -57 c82 -66 106 -78 95 -49 -5 10 -12 33 -16
49 -17 68 -43 150 -49 156 -3 4 -27 -17 -53 -46z"/>
<path d="M3124 1363 c-39 -59 -70 -109 -69 -111 2 -2 67 4 145 12 79 9 147 16
152 16 10 0 -40 63 -116 147 l-41 45 -71 -109z"/>
<path d="M2360 1358 c0 -15 93 -254 103 -264 3 -3 39 39 81 94 l75 100 -27 10
c-15 6 -67 23 -117 38 -49 15 -96 29 -102 31 -7 3 -13 -1 -13 -9z"/>
<path d="M3548 1308 l-117 -51 60 -73 c62 -75 87 -100 92 -93 7 9 86 216 92
242 4 15 3 27 -1 26 -5 0 -62 -23 -126 -51z"/>
<path d="M2244 1275 c-32 -41 -59 -80 -59 -87 0 -6 43 -28 95 -50 52 -21 104
-43 115 -47 11 -5 21 -5 23 -2 4 11 -95 255 -105 258 -6 2 -36 -30 -69 -72z"/>
<path d="M3677 1230 c-49 -125 -53 -140 -38 -140 22 0 216 90 216 100 0 16
-108 159 -120 160 -6 0 -32 -54 -58 -120z"/>
<path d="M2690 1273 c0 -2 21 -44 47 -91 26 -48 55 -104 65 -124 10 -21 22
-38 27 -38 10 0 155 190 149 195 -2 2 -53 14 -113 25 -61 12 -125 25 -142 30
-18 4 -33 6 -33 3z"/>
<path d="M2570 1164 c-40 -53 -68 -100 -63 -104 4 -4 37 -13 73 -19 36 -7 96
-19 134 -27 38 -8 70 -13 72 -11 2 1 -15 36 -36 77 -22 41 -52 99 -67 128 -15
28 -31 52 -35 52 -4 0 -39 -43 -78 -96z"/>
<path d="M3185 1228 c-60 -5 -114 -13 -119 -18 -6 -6 -1 -20 15 -37 14 -16 47
-56 73 -90 26 -35 53 -63 59 -63 7 0 33 35 60 78 26 42 57 92 68 110 l21 32
-34 -1 c-18 -1 -82 -6 -143 -11z"/>
<path d="M3326 1119 c-37 -61 -66 -112 -64 -114 2 -2 31 2 63 9 33 7 93 19
133 26 40 7 75 17 78 22 5 8 -120 160 -135 165 -3 1 -37 -48 -75 -108z"/>
<path d="M2939 1097 l-67 -92 74 -3 c41 -2 108 -2 149 0 l74 3 -70 90 c-39 50
-76 91 -82 92 -7 2 -42 -39 -78 -90z"/>
<path d="M5100 780 c0 -25 4 -30 25 -30 21 0 25 5 25 30 0 25 -4 30 -25 30
-21 0 -25 -5 -25 -30z"/>
<path d="M5242 565 l3 -247 28 -24 c25 -21 38 -24 113 -24 83 0 84 0 84 25 0
24 -2 25 -69 25 -107 0 -101 -9 -101 156 l0 144 85 0 c84 0 85 0 85 25 0 25
-1 25 -85 25 l-84 0 -3 68 c-3 65 -4 67 -31 70 l-28 3 3 -246z"/>
<path d="M1830 525 l0 -255 25 0 c25 0 25 1 25 85 l0 85 58 -1 57 -1 75 -84
c66 -74 79 -84 109 -84 l35 0 -30 32 c-16 18 -56 61 -88 96 l-59 63 25 27 c13
15 51 56 83 92 l59 65 -30 4 c-25 3 -39 -7 -105 -78 l-75 -81 -57 0 -57 0 0
145 0 145 -25 0 -25 0 0 -255z"/>
<path d="M2766 744 c-24 -25 -26 -33 -26 -110 0 -73 3 -86 24 -111 l24 -28
193 -3 c136 -2 196 -7 201 -15 4 -7 8 -38 8 -69 0 -87 -2 -88 -196 -88 -165 0
-204 7 -204 35 0 9 -10 15 -25 15 -44 0 -29 -61 22 -88 14 -8 86 -12 208 -12
l187 0 29 29 c27 28 29 34 29 110 0 70 -3 83 -24 108 l-24 28 -193 3 c-136 2
-196 7 -201 15 -12 19 -9 132 4 145 8 8 65 12 190 12 l178 0 12 -25 c12 -28
58 -36 58 -10 0 27 -22 63 -47 74 -15 7 -96 11 -212 11 l-188 0 -27 -26z"/>
<path d="M100 510 l0 -240 25 0 c24 0 24 1 27 108 l3 107 193 3 192 2 0 -110
0 -110 25 0 25 0 0 240 0 240 -25 0 -25 0 0 -110 0 -110 -192 2 -193 3 -3 108
c-3 106 -3 107 -27 107 l-25 0 0 -240z"/>
<path d="M3342 650 c-29 -27 -34 -66 -30 -210 3 -119 4 -122 31 -146 27 -23
33 -24 203 -24 l174 0 0 25 0 25 -163 0 c-113 0 -167 4 -175 12 -7 7 -12 34
-12 60 l0 48 175 0 175 0 0 90 c0 83 -2 93 -25 115 -23 24 -28 25 -178 25
-139 0 -155 -2 -175 -20z m316 -42 c7 -7 12 -34 12 -60 l0 -48 -150 0 -150 0
0 53 c0 30 3 57 7 60 12 13 268 8 281 -5z"/>
<path d="M3812 650 c-31 -29 -34 -51 -30 -200 3 -130 3 -132 31 -156 27 -23
33 -24 203 -24 l174 0 0 25 0 25 -162 0 c-90 0 -169 4 -176 8 -9 7 -12 43 -10
148 l3 139 173 3 172 2 0 25 0 25 -178 0 c-165 0 -180 -1 -200 -20z"/>
<path d="M4252 494 l3 -176 29 -25 c28 -24 31 -24 183 -21 205 4 193 -9 193
224 l0 174 -25 0 -25 0 0 -165 c0 -152 -1 -165 -19 -175 -11 -5 -70 -10 -131
-10 -61 0 -120 5 -131 10 -18 10 -19 23 -19 175 l0 165 -31 0 -31 0 4 -176z"/>
<path d="M4765 645 c-25 -24 -25 -27 -25 -200 l0 -175 25 0 25 0 0 163 c0 113
4 167 12 175 8 8 52 12 130 12 l118 0 0 25 0 25 -130 0 c-126 0 -132 -1 -155
-25z"/>
<path d="M5100 470 l0 -200 25 0 25 0 0 200 0 200 -25 0 -25 0 0 -200z"/>
<path d="M5520 505 c0 -99 4 -174 11 -188 18 -40 50 -47 199 -47 l140 0 0 -50
0 -49 -137 -3 -138 -3 -3 -28 -3 -27 141 0 142 0 29 29 29 29 0 251 0 251 -30
0 -30 0 0 -169 c0 -145 -2 -170 -16 -175 -9 -3 -69 -6 -134 -6 -94 0 -122 3
-134 16 -13 13 -16 43 -16 175 l0 159 -25 0 -25 0 0 -165z"/>
<path d="M670 630 c0 -19 7 -20 151 -20 84 0 159 -5 170 -10 15 -8 19 -22 19
-60 l0 -50 -170 0 -170 0 0 -79 c0 -44 3 -87 6 -96 14 -36 57 -45 224 -45
l160 0 0 164 c0 150 -2 165 -21 190 l-20 26 -175 0 c-167 0 -174 -1 -174 -20z
m340 -250 l0 -61 -142 3 -143 3 -3 58 -3 57 146 0 145 0 0 -60z"/>
<path d="M1114 633 c3 -10 36 -96 73 -190 89 -229 87 -228 179 -14 37 88 71
158 74 156 3 -2 37 -74 75 -159 60 -136 72 -156 92 -156 13 0 23 2 23 3 0 2
32 86 70 188 39 101 70 185 70 187 0 2 -12 2 -27 0 -26 -3 -32 -13 -78 -135
-27 -72 -53 -134 -56 -137 -3 -4 -35 57 -70 134 l-64 141 -38 -3 -39 -3 -55
-130 c-30 -72 -59 -134 -63 -138 -4 -5 -32 54 -63 130 -50 127 -57 138 -82
141 -23 3 -27 1 -21 -15z"/>
<path d="M2284 629 c-14 -16 -19 -36 -19 -85 0 -95 4 -98 183 -104 l147 -5 0
-55 0 -55 -131 -3 c-108 -2 -133 0 -144 13 -11 13 -60 22 -60 10 0 -18 26 -55
47 -64 37 -17 268 -14 302 4 35 17 41 32 41 95 0 96 -13 103 -195 110 l-140 5
-3 45 c-5 64 8 70 150 70 107 0 119 -2 130 -20 16 -26 58 -27 58 -2 0 10 -10
28 -23 40 -22 21 -33 22 -174 22 -140 0 -151 -1 -169 -21z"/>
</g>
</svg>
